# xmcd
#
# Track frame offsets:
#	150
#	18071
#	33543
#	48635
#	65597
#	77611
#	88516
#	101459
#	119122
#	128466
#	143233
#	156022
#	172799
#	187205
#	200200
#	213851
#	227626
#	238551
#	253192
#
# Disc length: 3562
#
# Revision: 4
# Processed by: cddbd v1.5.1PL0 Copyright (c) Steve Scherf et al.
# Submitted via: audiograbber 1.80.04
# Normalized: r3:DSETVAR1
#
DISCID=050de813
DTITLE=Various Artist - Boot Scootin' Boogie 2
DYEAR=1999
DGENRE=Country
TTITLE0=Alan Jackson - Chatahoochee (Extended Mix)
TTITLE1=Tim McGraw - I Like It - I Love It
TTITLE2=Jo Dee Messina - Bye Bye
TTITLE3=Rhett Akins - Drivin' My Life Away
TTITLE4=Marty Stuart - Hillbilly Rock
TTITLE5=Lari White - Wild At Heart
TTITLE6=The Woolpackers - Blue Rodeo
TTITLE7=The Tracktors - The Tulsa Shuffle
TTITLE8=Sara Evans - Shame About That
TTITLE9=Brooks and Dunn - Honky Tonk Truth
TTITLE10=BR5 - 49
TTITLE11=Carlene Carter - I Fell In Love
TTITLE12=Vince Gill - One More Last Chance
TTITLE13=Lonestar - No News
TTITLE14=The Judds - This Country's Rockin'
TTITLE15=Tracy Byrd - Watermelon Crawl
TTITLE16=Daryle Singletary - The Used To Be's
TTITLE17=Pam Tillis - Cleopatra - Queen Of Denial
TTITLE18=The Mavericks - Someone Should Tell Her
EXTD=
EXTT0=
EXTT1=
EXTT2=
EXTT3=
EXTT4=
EXTT5=
EXTT6=
EXTT7=
EXTT8=
EXTT9=
EXTT10=
EXTT11=
EXTT12=
EXTT13=
EXTT14=
EXTT15=
EXTT16=
EXTT17=
EXTT18=
PLAYORDER=
